<svg width="1095" height="1087" viewBox="0 0 1095 1087" fill="none" xmlns="http://www.w3.org/2000/svg">
<path d="M399.039 409.347C336.145 373.187 255.231 395.026 219.071 457.919L53.1852 746.489C41.4896 766.896 35.8806 789.094 35.7612 811.172H320.153L447.73 589.434C483.771 526.541 461.932 445.508 399.039 409.347Z" stroke="#0075D7" stroke-width="8.35395" stroke-miterlimit="10" stroke-linecap="round" stroke-linejoin="round"/>
<path d="M695.842 409.347C758.735 373.187 839.649 395.026 875.81 457.919L1041.81 746.489C1053.51 766.896 1059.12 789.094 1059.24 811.172H774.847L647.27 589.315C611.109 526.541 632.949 445.508 695.842 409.347Z" stroke="#0075D7" stroke-width="8.35395" stroke-miterlimit="10" stroke-linecap="round" stroke-linejoin="round"/>
<path d="M839.53 1086.25V621.891C839.53 493.121 734.151 387.742 605.381 387.742H489.381C360.611 387.742 255.231 493.121 255.231 621.891V1086.25H839.53Z" fill="#7FB9EC"/>
<path d="M398.203 566.159C400.709 566.159 403.335 565.801 405.722 565.204C426.607 559.714 466.944 546.228 501.792 516.632C521.245 500.162 536.521 480.948 547.381 459.347C558.241 480.948 573.517 500.282 592.969 516.632C627.817 546.109 668.155 559.714 689.04 565.204C691.546 565.801 694.052 566.159 696.558 566.159C713.028 566.159 726.394 552.792 726.394 536.323V455.17C726.394 442.043 723.888 429.393 719.114 417.458C685.34 398.483 646.554 387.742 605.262 387.742H489.261C447.969 387.742 409.183 398.602 375.409 417.458C370.635 429.393 368.129 442.043 368.129 455.17V536.323C368.368 552.792 381.734 566.159 398.203 566.159Z" fill="#3B96E1"/>
<path d="M584.496 529.402H510.504L486.039 931.705C485.681 936.836 487.59 941.849 491.171 945.429L534.73 989.347C541.772 996.388 553.109 996.388 560.15 989.347L603.71 945.429C607.29 941.729 609.2 936.717 608.842 931.705L584.496 529.402Z" fill="#0075D7" stroke="#0075D7" stroke-width="13.7363" stroke-miterlimit="10" stroke-linecap="round" stroke-linejoin="round"/>
<path d="M584.496 529.403H510.504L471.36 400.395H623.64L584.496 529.403Z" fill="#0075D7" stroke="#0075D7" stroke-width="13.7363" stroke-miterlimit="10" stroke-linecap="round" stroke-linejoin="round"/>
<path d="M401.186 547.901C441.405 537.399 549.171 497.539 549.171 371.633H469.808C423.623 371.633 386.269 408.987 386.269 455.172V536.325C386.269 544.201 393.668 549.93 401.186 547.901Z" fill="white"/>
<path d="M693.694 547.901C653.475 537.399 545.709 497.539 545.709 371.633H625.072C671.257 371.633 708.611 408.987 708.611 455.172V536.325C708.611 544.201 701.212 549.93 693.694 547.901Z" fill="white"/>
<path d="M733.793 780.859H665.052C651.924 780.859 641.184 770.118 641.184 756.99V662.113H757.662V756.99C757.662 770.118 746.921 780.859 733.793 780.859Z" stroke="#3B96E1" stroke-width="5.9671" stroke-miterlimit="10" stroke-linecap="round" stroke-linejoin="round"/>
<path d="M521.961 530.715H573.039" stroke="#0F3E9C" stroke-width="7.16053" stroke-miterlimit="10" stroke-linecap="round" stroke-linejoin="round"/>
<path d="M188.758 922.875C188.4 905.213 191.145 888.147 198.066 871.558C206.182 851.986 219.309 835.278 235.898 822.151C237.091 821.077 238.404 819.883 239.597 818.928C250.458 809.739 263.347 802.459 277.071 797.924C291.511 793.15 305.474 792.912 320.511 792.792C323.734 792.673 325.285 788.854 323.137 786.587C317.05 780.023 310.248 774.056 302.61 768.805L201.647 698.632C143.646 658.175 63.2098 672.615 22.8722 730.615C-17.4654 788.615 -3.02503 869.171 54.9752 909.509C90.1811 933.974 124.432 960.468 161.07 982.785C169.663 988.036 181.836 996.748 192.219 996.748C198.544 996.748 203.198 990.662 201.05 984.575C201.05 984.575 201.05 984.575 201.05 984.456C199.021 978.727 197.112 972.999 195.56 967.032C192.457 955.575 190.19 943.76 189.354 931.826C188.996 928.962 188.877 925.978 188.758 922.875Z" fill="#9FCAF1"/>
<path d="M140.067 921.443C140.902 869.768 164.532 820.957 204.631 787.541C217.281 777.039 231.125 768.447 245.804 761.883" stroke="#3B96E1" stroke-width="8.35395" stroke-miterlimit="10" stroke-linecap="round" stroke-linejoin="round"/>
<path d="M906.123 922.874C906.481 905.211 903.736 888.145 896.814 871.557C888.699 851.985 875.571 835.277 858.983 822.149C857.789 821.075 856.477 819.882 855.283 818.927C844.423 809.737 831.534 802.458 817.81 797.923C803.369 793.149 789.406 792.91 774.369 792.791C771.147 792.672 769.596 788.853 771.744 786.585C777.83 780.021 784.633 774.054 792.271 768.803L893.234 698.63C951.234 658.292 1031.79 672.733 1072.13 730.733C1112.47 788.733 1098.02 869.289 1040.02 909.627C1004.82 934.092 970.568 960.586 933.93 982.903C925.337 988.154 913.164 996.866 902.781 996.866C896.456 996.866 891.802 990.779 893.95 984.693C893.95 984.693 893.95 984.693 893.95 984.574C895.979 978.845 897.888 973.117 899.44 967.15C902.543 955.693 904.81 943.878 905.646 931.944C906.004 928.96 906.123 925.977 906.123 922.874Z" fill="#9FCAF1"/>
<path d="M849.077 761.883C863.756 768.327 877.6 776.92 890.25 787.541C930.468 820.957 953.979 869.768 954.814 921.443" stroke="#3B96E1" stroke-width="8.35395" stroke-miterlimit="10" stroke-linecap="round" stroke-linejoin="round"/>
<path d="M496.302 928.009C494.035 923.832 493.796 919.178 495.109 914.643C497.137 907.84 504.298 902.231 504.298 894.951C504.298 891.252 502.269 887.791 500.24 884.568C498.331 881.585 496.302 878.363 492.961 876.93C490.932 876.095 488.784 876.095 486.635 876.095C464.199 875.976 446.059 874.782 427.68 860.7C412.166 848.766 400.232 833.013 385.791 819.885C321.108 761.407 221.099 810.338 196.515 884.688C195.679 887.194 194.963 889.819 194.247 892.445C183.148 934.931 194.725 977.775 217.996 1014.05C230.885 1034.22 247.354 1053.08 268.717 1064.54C288.766 1075.28 315.141 1086.73 334.474 1068.59C337.338 1065.97 339.725 1062.75 341.515 1059.17H347.721C348.079 1052.72 349.989 1045.92 348.676 1039.59C348.557 1039.47 348.557 1039.36 348.437 1039.24C345.215 1035.89 345.334 1030.88 348.437 1027.66C351.421 1024.44 357.03 1024.56 360.013 1027.66C361.207 1028.85 362.162 1030.17 363.236 1031.48C363.832 1031.48 364.548 1031.72 365.264 1031.96C377.557 1036.37 389.849 1040.19 402.499 1043.29C413.479 1045.92 424.578 1047.95 435.796 1048.9C441.405 1049.38 447.133 1049.5 452.742 1049.38C454.294 1049.38 455.845 1049.26 457.516 1049.14C457.874 1049.02 458.232 1048.9 458.471 1048.78C462.648 1047.35 466.944 1046.04 471.24 1044.61C474.224 1043.65 476.969 1041.98 479.475 1039.24C481.026 1037.56 484.129 1032.31 485.084 1029.81C486.755 1025.39 487.709 1020.98 487.948 1017.28C488.306 1012.15 487.948 1009.16 486.635 1004.63C485.561 1001.05 483.532 996.989 481.265 994.363C476.73 988.993 479.594 980.639 486.993 980.281C487.113 980.281 487.351 980.161 487.471 980.161C487.351 980.281 490.096 978.729 487.59 980.161C488.306 979.684 489.022 979.326 489.738 978.968C489.858 978.849 490.812 978.133 490.812 978.252C493.199 976.342 495.347 974.075 497.257 971.807C497.615 971.33 498.092 970.853 498.45 970.375C498.57 970.137 499.286 969.182 499.286 969.182C500.24 967.75 501.195 966.318 502.15 964.886C502.866 963.692 503.463 962.618 504.059 961.425C504.179 961.186 504.298 960.947 504.417 960.709C504.537 960.112 504.775 959.396 505.014 958.799C506.685 952.116 505.253 943.762 502.15 937.198C500.598 933.737 497.973 931.112 496.302 928.009Z" fill="#FFCBAC"/>
<path d="M460.739 982.664C473.747 984.335 484.965 994.121 488.545 1007.13C494.274 1027.66 479.356 1047.71 457.994 1049.14C427.919 1051.05 377.915 1045.92 339.368 1015.48" stroke="#FF9759" stroke-width="8.35395" stroke-miterlimit="10" stroke-linecap="round" stroke-linejoin="round"/>
<path d="M481.027 920.724C491.051 920.366 500.36 930.51 503.94 940.774C510.504 959.391 497.973 979.321 478.401 981.469C451.072 984.453 412.286 981.947 374.693 956.288" stroke="#FF9759" stroke-width="8.35395" stroke-miterlimit="10" stroke-linecap="round" stroke-linejoin="round"/>
<path d="M286.379 868.215C321.943 895.186 311.799 929.796 299.984 951.158C293.181 963.45 296.046 978.845 306.786 987.915L334.832 1011.31C350.108 1024.43 352.972 1046.87 341.634 1063.34C331.729 1077.66 313.589 1083.87 297 1078.38C231.84 1056.66 186.609 990.66 187.802 922.158C189.115 846.375 257.617 783.959 333.996 796.729C351.062 799.593 367.174 806.515 380.779 817.137C395.219 828.355 405.721 843.75 419.445 855.684C434.84 869.05 455.487 876.33 475.894 873.943C486.516 872.75 496.54 878.717 500.479 888.623C506.088 902.586 497.137 918.219 482.219 920.487C461.454 923.59 431.738 922.874 402.379 904.376" stroke="#FF9759" stroke-width="8.35395" stroke-miterlimit="10" stroke-linecap="round" stroke-linejoin="round"/>
<path d="M360.013 970.85C380.421 948.414 395.458 921.204 403.454 891.965" stroke="#FF9759" stroke-width="8.35395" stroke-miterlimit="10" stroke-linecap="round" stroke-linejoin="round"/>
<path d="M790.839 1081C791.435 1080.88 791.913 1080.88 792.509 1080.77C796.567 1079.45 800.744 1078.38 804.682 1076.59C813.275 1072.65 821.51 1068 829.744 1063.22C835.711 1059.88 841.559 1056.3 847.287 1052.48C850.51 1049.02 853.613 1045.44 856.596 1041.98C871.991 1024.44 885 1004.74 893.712 983.024C896.934 974.79 899.679 966.317 901.588 957.724C909.823 921.683 906.72 879.674 884.522 848.765C883.806 847.691 882.971 846.736 882.255 845.662C872.23 833.011 859.222 822.987 845.378 814.752C829.983 805.563 812.559 796.612 794.658 793.987C782.485 792.196 769.834 793.271 757.9 795.777C754.439 796.493 750.978 797.328 747.637 798.402C729.139 803.892 712.073 814.275 699.184 828.715C692.62 836.114 687.011 844.349 680.089 851.509C662.069 870.127 639.752 874.543 615.286 878.123C609.439 878.958 602.636 879.794 597.385 883.613C597.504 883.493 596.072 884.806 595.834 885.045C595.237 885.641 594.64 886.238 594.044 886.954C593.566 887.551 593.327 888.148 592.969 888.744C592.731 889.102 592.611 889.341 592.492 889.46C592.134 890.296 592.015 891.131 591.776 891.966C591.657 892.325 591.657 892.444 591.657 892.563C591.657 892.683 591.657 892.921 591.776 893.16C591.776 893.518 591.776 893.995 591.776 894.353C591.776 894.234 592.015 895.905 592.015 896.024C593.447 901.753 597.624 907.481 601.562 912.732C602.636 914.283 602.875 916.193 602.517 918.102C603.352 919.773 603.352 921.802 602.875 923.592C602.398 925.502 600.846 927.53 599.056 928.485C598.698 928.724 598.34 928.843 597.982 928.963C595.118 933.856 591.776 937.674 590.344 943.403C588.912 949.609 589.27 956.292 591.537 962.378C593.447 967.51 596.788 972.045 600.965 975.506C602.636 976.938 605.023 977.893 607.291 978.967C608.365 978.847 609.319 978.728 610.393 978.609C612.542 978.37 614.69 979.683 616.241 980.996C617.912 982.428 618.509 984.695 618.628 986.843C618.747 988.872 617.673 991.259 616.241 992.691C615.525 993.527 614.57 994.004 613.616 994.362H613.496C611.348 996.988 609.2 1001.05 608.245 1004.51C604.784 1016.32 607.768 1033.03 617.673 1041.02C621.97 1044.49 627.221 1046.16 632.591 1047.35C652.402 1051.77 673.048 1047.83 692.381 1043.17C704.793 1040.19 716.966 1036.13 729.139 1032.19C730.094 1031.84 731.048 1031.6 731.884 1031C732.958 1030.28 733.554 1029.09 734.39 1028.14C738.567 1023.48 746.563 1025.63 748.114 1031.6C749.308 1036.01 745.727 1039.12 745.847 1043.41C747.04 1044.84 747.756 1046.63 747.518 1048.42C747.518 1049.02 747.398 1049.5 747.398 1050.09C747.517 1050.33 747.637 1050.45 747.756 1050.69C751.456 1059.4 757.065 1066.92 762.435 1074.68C763.271 1075.28 764.106 1075.75 764.941 1076.35C772.699 1080.77 782.246 1081.96 790.839 1081Z" fill="#FFCBAC"/>
<path d="M634.262 982.664C621.254 984.335 610.035 994.121 606.455 1007.13C600.727 1027.66 615.644 1047.71 637.007 1049.14C667.081 1051.05 717.085 1045.92 755.633 1015.48" stroke="#FF9759" stroke-width="8.35395" stroke-miterlimit="10" stroke-linecap="round" stroke-linejoin="round"/>
<path d="M613.854 920.724C603.83 920.366 594.521 930.51 590.941 940.774C584.377 959.391 596.908 979.321 616.48 981.469C643.809 984.453 682.595 981.947 720.188 956.288" stroke="#FF9759" stroke-width="8.35395" stroke-miterlimit="10" stroke-linecap="round" stroke-linejoin="round"/>
<path d="M808.621 868.215C773.057 895.186 783.201 929.796 795.016 951.158C801.818 963.45 798.954 978.845 788.213 987.915L760.168 1011.31C744.892 1024.43 742.028 1046.87 753.365 1063.34C763.271 1077.66 781.411 1083.87 797.999 1078.38C863.16 1056.66 908.391 990.66 907.197 922.158C905.885 846.375 837.382 783.959 761.003 796.729C743.937 799.593 727.826 806.515 714.221 817.137C699.781 828.355 689.279 843.75 675.554 855.684C660.159 869.05 639.513 876.33 619.105 873.943C608.484 872.75 598.459 878.717 594.521 888.623C588.912 902.586 597.863 918.219 612.78 920.487C633.546 923.59 663.262 922.874 692.62 904.376" stroke="#FF9759" stroke-width="8.35395" stroke-miterlimit="10" stroke-linecap="round" stroke-linejoin="round"/>
<path d="M734.986 970.85C714.579 948.414 699.542 921.204 691.546 891.965" stroke="#FF9759" stroke-width="8.35395" stroke-miterlimit="10" stroke-linecap="round" stroke-linejoin="round"/>
<path d="M160.116 965.718C165.059 965.718 169.066 961.71 169.066 956.767C169.066 951.824 165.059 947.816 160.116 947.816C155.172 947.816 151.165 951.824 151.165 956.767C151.165 961.71 155.172 965.718 160.116 965.718Z" fill="white"/>
<path d="M934.765 965.718C939.708 965.718 943.716 961.71 943.716 956.767C943.716 951.824 939.708 947.816 934.765 947.816C929.822 947.816 925.814 951.824 925.814 956.767C925.814 961.71 929.822 965.718 934.765 965.718Z" fill="white"/>
<path d="M554.325 207.394V207.513H555.019C565.082 207.513 574.108 201.662 578.802 192.745C582.63 185.361 588.885 178.423 596.066 171.324C598.674 168.745 601.402 166.148 604.184 163.499C609.087 158.83 614.162 153.998 619.055 148.819C634.368 132.613 647.725 113.189 647.725 85.5683C647.725 59.2124 638.237 38.4804 618.799 23.4283L618.793 23.4235C599.793 8.22299 577.349 0.5 550.961 0.5C516.598 0.5 485.475 13.5778 464.576 37.5632L464.576 37.5633C452.613 51.2864 456.246 72.6405 472.087 81.7936L554.325 207.394ZM554.325 207.394H553.825M554.325 207.394H553.825M553.825 207.394C531.906 207.394 518.916 182.431 532.029 164.751L532.03 164.751M553.825 207.394L532.03 164.751M532.03 164.751C538.089 156.553 545.217 149.426 552.103 144.083L552.11 144.077M532.03 164.751L552.11 144.077M552.11 144.077C561.021 136.901 570.185 128.189 577.125 118.865C584.059 109.55 588.815 99.5685 588.815 89.8646C588.815 79.5283 585.061 71.4396 578.139 65.9476C571.233 60.4687 561.233 57.6196 548.813 57.6196C532.325 57.6196 518.937 63.6446 508.812 75.4568L508.81 75.4593M552.11 144.077L508.81 75.4593M508.81 75.4593C499.777 86.1339 484.291 88.8338 472.087 81.7938L508.81 75.4593ZM567.951 307.037L568.23 307.381L567.951 307.037C554.889 317.628 535.698 317.63 522.514 307.036C504.502 292.438 504.502 264.89 522.514 250.292C535.697 239.698 554.769 239.698 567.952 250.292C585.963 264.89 585.963 292.439 567.951 307.037Z" fill="white" stroke="black"/>
<path d="M549.171 859.858C635.184 859.858 704.912 790.13 704.912 704.116C704.912 618.103 635.184 548.375 549.171 548.375C463.157 548.375 393.429 618.103 393.429 704.116C393.429 790.13 463.157 859.858 549.171 859.858Z" fill="white"/>
<path d="M436.512 649.936C456.681 608.047 499.644 579.047 549.29 579.047" stroke="#9FCAF1" stroke-width="23.8684" stroke-miterlimit="10" stroke-linecap="round" stroke-linejoin="round"/>
<path d="M424.816 706.623C424.816 698.03 425.652 689.557 427.323 681.441" stroke="#9FCAF1" stroke-width="23.8684" stroke-miterlimit="10" stroke-linecap="round" stroke-linejoin="round"/>
<path d="M549.052 695.288C566.237 695.288 580.916 700.42 592.731 710.922C604.546 721.186 610.394 735.626 610.394 754.005C610.394 772.503 604.188 786.824 591.657 797.445C579.365 807.947 564.208 813.079 546.188 813.079C522.439 813.079 502.27 804.248 490.336 787.182C485.92 780.857 487.71 772.145 494.393 768.326L502.031 763.791C507.76 760.449 515.039 762.001 519.097 767.252C524.826 774.651 533.896 778.35 546.188 778.35C564.447 778.35 574.949 769.161 574.949 754.005C574.949 739.326 564.447 729.659 547.262 729.659H506.924C499.286 729.659 493.319 723.214 493.916 715.576L499.167 641.942C499.644 635.14 505.373 629.77 512.175 629.77H588.793C596.073 629.77 601.921 635.617 601.921 642.897V649.819C601.921 657.099 596.073 662.947 588.793 662.947H544.994C538.073 662.947 532.463 668.198 531.986 675.12L531.509 681.325C530.912 688.963 536.998 695.408 544.517 695.408H549.052V695.288Z" fill="#FF6B00"/>
<path d="M512.414 656.023L508.953 704.118" stroke="white" stroke-width="10.7408" stroke-miterlimit="10" stroke-linecap="round" stroke-linejoin="round"/>
<path d="M666.126 635.497C683.526 635.497 697.632 621.391 697.632 603.991C697.632 586.59 683.526 572.484 666.126 572.484C648.726 572.484 634.62 586.59 634.62 603.991C634.62 621.391 648.726 635.497 666.126 635.497Z" fill="#FF6B00"/>
<path d="M651.089 700.776C661.766 700.776 670.422 692.12 670.422 681.443C670.422 670.765 661.766 662.109 651.089 662.109C640.411 662.109 631.755 670.765 631.755 681.443C631.755 692.12 640.411 700.776 651.089 700.776Z" fill="#FF6B00"/>
</svg>
