<svg width="193" height="316" viewBox="0 0 193 316" fill="none" xmlns="http://www.w3.org/2000/svg">
<path d="M98.3254 207.394V207.513H99.0188C109.082 207.513 118.108 201.662 122.802 192.745C126.63 185.361 132.885 178.423 140.066 171.324C142.674 168.745 145.402 166.148 148.184 163.499C153.087 158.83 158.162 153.998 163.055 148.819C178.368 132.613 191.725 113.189 191.725 85.5683C191.725 59.2124 182.237 38.4804 162.799 23.4283L162.793 23.4235C143.793 8.22299 121.349 0.5 94.9612 0.5C60.598 0.5 29.4746 13.5778 8.57646 37.5632L8.57636 37.5633C-3.38735 51.2864 0.245619 72.6405 16.0872 81.7936L98.3254 207.394ZM98.3254 207.394H97.8254M98.3254 207.394H97.8254M97.8254 207.394C75.9058 207.394 62.9157 182.431 76.0293 164.751L76.0298 164.751M97.8254 207.394L76.0298 164.751M76.0298 164.751C82.0887 156.553 89.2169 149.426 96.1031 144.083L96.1102 144.077M76.0298 164.751L96.1102 144.077M96.1102 144.077C105.021 136.901 114.185 128.189 121.125 118.865C128.059 109.55 132.815 99.5685 132.815 89.8646C132.815 79.5283 129.061 71.4396 122.139 65.9476C115.233 60.4687 105.233 57.6196 92.813 57.6196C76.3252 57.6196 62.9366 63.6446 52.8118 75.4568L52.8098 75.4593M96.1102 144.077L52.8098 75.4593M52.8098 75.4593C43.7774 86.1339 28.2906 88.8338 16.0875 81.7938L52.8098 75.4593ZM111.951 307.037L112.23 307.381L111.951 307.037C98.8885 317.628 79.6978 317.63 66.5136 307.036C48.5024 292.438 48.5024 264.89 66.5136 250.292C79.6968 239.698 98.7688 239.698 111.952 250.292C129.963 264.89 129.963 292.439 111.951 307.037Z" fill="white" stroke="black"/>
</svg>
